HIERARCHY
ROOT Hips
{
    OFFSET 0.000000 0.000000 0.000000
    CHANNELS 6 Xposition Yposition Zposition Zrotation Xrotation Yrotation
    JOINT Spine
    {
        OFFSET -0.000000 8.505030 0.000000
        CHANNELS 3 Zrotation Xrotation Yrotation
        JOINT Spine1
        {
            OFFSET -0.000000 25.070629 0.000000
            CHANNELS 3 Zrotation Xrotation Yrotation
            JOINT Neck
            {
                OFFSET -0.000000 24.967667 2.269788
                CHANNELS 3 Zrotation Xrotation Yrotation
                JOINT Head
                {
                    OFFSET -0.000000 14.520781 -2.074397
                    CHANNELS 3 Zrotation Xrotation Yrotation
                    End Site
                    {
                        OFFSET -0.000000 25.929966 0.000000
                    }
                }
            }
            JOINT LeftShoulder
            {
                OFFSET 4.117346 22.983784 -0.389865
                CHANNELS 3 Zrotation Xrotation Yrotation
                JOINT LeftArm
                {
                    OFFSET 11.957758 0.000000 0.000000
                    CHANNELS 3 Zrotation Xrotation Yrotation
                    JOINT LeftForeArm
                    {
                        OFFSET 31.907600 0.000000 0.000000
                        CHANNELS 3 Zrotation Xrotation Yrotation
                        JOINT LeftHand
                        {
                            OFFSET 28.601147 0.000000 0.000000
                            CHANNELS 3 Zrotation Xrotation Yrotation
                            End Site
                            {
                                OFFSET 15.557981 0.000000 0.000000
                            }
                        }
                    }
                }
            }
            JOINT RightShoulder
            {
                OFFSET -4.061940 22.983784 -0.389865
                CHANNELS 3 Zrotation Xrotation Yrotation
                JOINT RightArm
                {
                    OFFSET -11.957758 0.000000 0.000000
                    CHANNELS 3 Zrotation Xrotation Yrotation
                    JOINT RightForeArm
                    {
                        OFFSET -31.907600 0.000000 0.000000
                        CHANNELS 3 Zrotation Xrotation Yrotation
                        JOINT RightHand
                        {
                            OFFSET -28.601147 0.000000 0.000000
                            CHANNELS 3 Zrotation Xrotation Yrotation
                            End Site
                            {
                                OFFSET -15.557981 0.000000 0.000000
                            }
                        }
                    }
                }
            }
        }
    }
    JOINT LeftUpLeg
    {
        OFFSET 10.371986 0.000000 0.000000
        CHANNELS 3 Zrotation Xrotation Yrotation
        JOINT LeftLeg
        {
            OFFSET -0.000000 -42.486427 0.000000
            CHANNELS 3 Zrotation Xrotation Yrotation
            JOINT LeftFoot
            {
                OFFSET -0.000000 -48.322342 0.000000
                CHANNELS 3 Zrotation Xrotation Yrotation
                JOINT LeftToeBase
                {
                    OFFSET -0.000000 -6.741791 15.557981
                    CHANNELS 3 Zrotation Xrotation Yrotation
                    End Site
                    {
                        OFFSET -0.000000 0.000000 4.148795
                    }
                }
            }
        }
    }
    JOINT RightUpLeg
    {
        OFFSET -10.371986 0.000000 0.000000
        CHANNELS 3 Zrotation Xrotation Yrotation
        JOINT RightLeg
        {
            OFFSET -0.000000 -42.486427 0.000000
            CHANNELS 3 Zrotation Xrotation Yrotation
            JOINT RightFoot
            {
                OFFSET -0.000000 -48.322342 0.000000
                CHANNELS 3 Zrotation Xrotation Yrotation
                JOINT RightToeBase
                {
                    OFFSET -0.000000 -6.741791 15.557981
                    CHANNELS 3 Zrotation Xrotation Yrotation
                    End Site
                    {
                        OFFSET -0.000000 0.000000 4.148795
                    }
                }
            }
        }
    }
}
MOTION
Frames:    7
Frame Time:    0.008333
-1.563880    97.497360    65.491982    -1.448770    -0.599710    91.420517    -1.970613    -7.207673    -0.278904    5.834702    -0.467365    -0.131038    -8.742401    24.379560    -7.591587    6.957905    9.061737    -8.154906    2.470424    3.084257    -6.290041    -75.747810    41.710712    -2.756273    8.231449    -25.358877    -20.672241    -23.563787    -20.055729    -20.144520    -13.559902    7.478471    -16.369841    80.249100    62.746719    9.850801    -0.016459    -26.274944    4.246782    26.526442    -20.006598    28.312361    1.490771    -2.558042    0.806483    -0.724432    15.312689    2.282148    -1.900419    -13.335342    7.290525    0.000000    0.000000    0.000000    0.269306    -5.727338    6.687640    3.002698    20.922472    -2.654280    2.648284    -14.247253    -12.996338    0.000000    0.000000    0.000000    
-1.683905    97.444923    65.619949    -1.598969    -0.657417    91.177727    -1.539646    -7.254548    -0.059256    5.670258    -0.458618    0.060610    -8.957877    24.485764    -7.451001    6.736177    9.093106    -8.050606    2.257209    3.219621    -6.028356    -75.821091    41.689041    -2.690796    7.924296    -25.091270    -19.914091    -23.587721    -19.806604    -20.493128    -13.519301    7.302073    -16.108440    79.527435    63.031170    10.837045    -0.266731    -26.372093    4.115732    26.438993    -20.142918    28.223106    1.557001    -3.430512    0.892025    -0.578843    16.560118    2.593051    -2.347854    -13.692953    7.038087    0.000000    0.000000    0.000000    0.421178    -5.517612    6.509523    2.851551    20.176405    -2.273894    1.874673    -14.202931    -13.098354    0.000000    0.000000    0.000000    
-1.840526    97.413254    65.779892    -1.686756    -0.774152    90.915413    -1.131598    -7.130016    0.168978    5.626306    -0.522655    0.265049    -9.350606    24.452457    -7.298766    6.703786    9.311861    -7.935285    1.965477    3.394782    -5.691710    -75.808365    41.829208    -2.670033    7.598934    -24.957077    -19.295626    -23.538605    -19.729559    -20.691463    -13.515411    7.229245    -15.902702    78.728661    63.785618    11.905954    -0.939388    -26.662397    4.125215    26.491489    -20.428093    28.152136    1.780051    -4.359204    0.947753    -0.583186    17.986195    2.918356    -2.802614    -14.012678    6.832333    0.000000    0.000000    0.000000    0.692364    -5.364430    6.345023    2.588766    19.546211    -2.042170    1.469871    -14.048027    -12.917079    0.000000    0.000000    0.000000    
-1.995255    97.390419    65.925095    -1.911555    -0.919622    90.547783    -0.667747    -7.212660    0.480323    5.557858    -0.531252    0.548215    -9.472096    24.451777    -7.209047    6.354096    9.492717    -7.882837    1.746065    3.528095    -5.596743    -75.948143    41.542301    -2.567209    7.043181    -24.710814    -18.673491    -22.938410    -19.731606    -20.572638    -13.550520    7.026560    -15.659492    77.959198    64.429283    12.912519    -1.283915    -26.945694    3.994683    26.529758    -20.733074    28.034824    2.024559    -5.406743    0.973439    -0.604575    19.382208    3.396383    -3.291792    -14.265001    6.586813    0.000000    0.000000    0.000000    0.988728    -5.566183    6.300870    2.353831    19.252995    -1.896407    1.321344    -13.863409    -12.635529    0.000000    0.000000    0.000000    
-2.197033    97.370544    66.092361    -2.034135    -1.126569    90.280678    -0.205237    -7.043013    0.703978    5.573418    -0.668087    0.749163    -9.752810    24.387693    -6.981073    6.100540    9.755662    -7.690594    1.482566    3.764616    -5.272849    -75.992996    41.607719    -2.603348    6.816604    -24.498798    -17.928583    -22.992287    -19.558636    -20.682919    -13.677634    6.866929    -15.362746    76.967987    65.447166    14.175876    -1.851953    -27.257874    3.913335    26.712809    -21.020050    27.942459    2.406779    -6.448412    0.835501    -0.774981    20.891306    3.934682    -3.763940    -14.490860    6.353006    0.000000    0.000000    0.000000    1.237413    -5.800937    6.391207    2.424600    19.166559    -1.622954    1.218168    -13.705318    -12.742672    0.000000    0.000000    0.000000    
-2.449038    97.358879    66.253349    -2.212558    -1.344543    90.074448    0.357328    -6.937997    0.920258    5.322266    -0.625539    0.927642    -9.687445    24.334276    -6.897998    5.792374    9.573728    -7.601782    1.641453    4.074330    -4.739274    -75.891830    41.556885    -3.236728    6.321474    -24.188137    -17.108419    -22.799667    -19.375435    -20.753353    -13.627093    6.592579    -15.122942    75.429230    65.929504    15.932649    -1.893777    -27.274227    3.828089    26.493214    -21.095900    27.922464    2.838450    -7.690345    0.700620    -1.050894    22.605129    4.391124    -4.209397    -14.669527    6.211962    0.000000    0.000000    0.000000    1.566657    -6.164902    6.246042    2.287634    19.165724    -1.627667    1.384455    -13.503026    -12.330437    0.000000    0.000000    0.000000    
-2.710814    97.349152    66.410332    -2.548367    -1.537398    89.819794    0.810671    -6.797312    1.152519    5.246280    -1.143364    1.156784    -9.882154    24.924295    -6.730761    5.721091    9.167168    -7.484396    1.408626    4.492919    -4.784678    -76.053864    41.195538    -3.130137    6.016164    -24.047661    -16.309879    -22.502094    -19.387529    -20.651100    -13.490401    6.568973    -14.632770    74.381531    66.491173    16.969488    -2.580827    -27.292879    3.824942    26.719002    -21.073166    27.776087    3.249340    -9.029277    0.657697    -1.280149    24.168613    4.996056    -4.733734    -14.724005    5.788247    0.000000    0.000000    0.000000    1.781699    -6.789782    6.165761    2.340890    19.323521    -1.506226    1.485182    -13.308272    -12.068376    0.000000    0.000000    0.000000    
